<svg xmlns="http://www.w3.org/2000/svg" viewBox="0 0 212.891 205.173"><g data-name="Layer 2"><g data-name="ART"><rect x="29.473" y="14.444" width="175.636" height="113.467" rx="17.621" transform="rotate(-11.245 117.29 71.177)" fill="#cedd3e"/><path d="M56.03 141.646a18.426 18.426 0 01-18.02-14.827L22.755 50.095a18.435 18.435 0 0114.469-21.649L174.922 1.068a18.411 18.411 0 0121.65 14.468l15.254 76.723a18.433 18.433 0 01-14.468 21.649L59.659 141.286a18.616 18.616 0 01-3.628.36zM178.549 2.292a17.003 17.003 0 00-3.317.328L37.532 29.998a16.849 16.849 0 00-13.224 19.789l15.255 76.723a16.828 16.828 0 0019.788 13.225l137.698-27.379a16.849 16.849 0 0013.225-19.788l-15.255-76.723a16.84 16.84 0 00-16.47-13.553z" fill="#3e4147"/><path d="M27.682 70.817l13 65.383a7.898 7.898 0 009.287 6.206l149.923-30.031c4.278-.851 12.435-10.765 11.584-15.043L208.03 77.22C147.432 50.27 60.537 64.08 27.682 70.817z" fill="#b5c933"/><path d="M56.029 142.355a19.136 19.136 0 01-18.714-15.398L22.06 50.234A19.144 19.144 0 0137.085 27.75L174.783.373a19.121 19.121 0 0122.484 15.025l15.255 76.723a19.143 19.143 0 01-15.027 22.482h.001L59.798 141.982a19.338 19.338 0 01-3.77.373zM178.546 3a16.281 16.281 0 00-3.177.314L37.671 30.694a16.14 16.14 0 00-12.668 18.955l15.254 76.723a16.122 16.122 0 0018.955 12.667l137.698-27.378h.001a16.139 16.139 0 0012.667-18.955l-15.254-76.723a16.133 16.133 0 00-15.778-12.982z" fill="#3e4147"/><path d="M179.367 31.187l-5.991-7.913c-2.67-3.879-4.947-5.87-8.583-5.16l-20.025 3.906c-3.636.709-4.412 3.883-5.3 7.869l-1.863 9.446-12.215 2.383a4.05 4.05 0 00-3.27 4.174l.707 14.303 64.482-12.58-3.379-17.318z" fill="#f3783c"/><path d="M122.826 61.445a1.25 1.25 0 01-1.248-1.188l-.706-14.303a5.326 5.326 0 014.279-5.463l11.39-2.222 1.7-8.622c.876-3.935 1.776-7.974 6.288-8.854l20.024-3.907c4.353-.85 7.084 1.657 9.853 5.679l5.487 7.246 3.798-.741a1.25 1.25 0 011.466.988l3.378 17.319a1.25 1.25 0 01-.987 1.466l-64.482 12.58a1.274 1.274 0 01-.24.022zm43.36-42.225a6.015 6.015 0 00-1.154.12l-20.025 3.907c-2.77.54-3.416 2.86-4.32 6.913l-1.856 9.416a1.25 1.25 0 01-.987.986l-12.215 2.383a2.813 2.813 0 00-2.26 2.885l.635 12.862 61.839-12.063-2.9-14.866-3.336.651a1.246 1.246 0 01-1.237-.472l-5.99-7.914c-2.375-3.447-4.066-4.808-6.193-4.808z" fill="#3e4147"/><circle cx="136.227" cy="58.986" r="7.26" fill="#4794d0"/><path d="M136.21 67.498a8.52 8.52 0 111.647-.16 8.605 8.605 0 01-1.647.16zm.03-14.524a6.011 6.011 0 105.886 4.86 6.015 6.015 0 00-5.886-4.86z" fill="#3e4147"/><circle cx="175.829" cy="51.26" r="7.26" fill="#4794d0"/><path d="M175.826 59.771a8.513 8.513 0 111.632-.158 8.526 8.526 0 01-1.632.158zm.004-14.522a6.01 6.01 0 105.898 4.86 5.997 5.997 0 00-5.898-4.86z" fill="#3e4147"/><path d="M153.969 24.485l-7.746 1.511a1.696 1.696 0 00-1.341 1.35l-1.914 10.119a1.696 1.696 0 001.991 1.98l11.491-2.242a1.696 1.696 0 001.34-1.99l-1.832-9.388a1.696 1.696 0 00-1.989-1.34z" fill="#85c3e9"/><path d="M144.633 40.727a2.948 2.948 0 01-2.893-3.494l1.914-10.12a2.932 2.932 0 012.33-2.344l7.745-1.51a2.945 2.945 0 013.456 2.328l1.832 9.387a2.95 2.95 0 01-2.326 3.456l-11.492 2.242a2.958 2.958 0 01-.566.055zm9.662-15.024a.448.448 0 00-.086.009l-7.746 1.51a.444.444 0 00-.352.355l-1.914 10.12a.433.433 0 00.124.4.423.423 0 00.399.12l11.491-2.24a.448.448 0 00.353-.525l-1.832-9.388a.446.446 0 00-.437-.36zm-.326-1.218z" fill="#3e4147"/><path d="M161.858 22.946l4.175-.815a1.696 1.696 0 011.75.747l5.578 8.658a1.696 1.696 0 01-1.101 2.583l-7.92 1.545a1.696 1.696 0 01-1.99-1.34l-1.832-9.389a1.696 1.696 0 011.34-1.99z" fill="#85c3e9"/><path d="M164.008 36.946a2.947 2.947 0 01-2.885-2.383l-1.832-9.389a2.946 2.946 0 012.327-3.455l4.176-.815a2.928 2.928 0 013.04 1.296l5.577 8.66a2.946 2.946 0 01-1.912 4.486l-7.92 1.545a3.017 3.017 0 01-.57.055zm2.352-13.596a.437.437 0 00-.087.009l-4.176.814a.447.447 0 00-.353.522l1.832 9.39a.446.446 0 00.524.352l7.92-1.545a.446.446 0 00.29-.68l-5.577-8.658a.442.442 0 00-.373-.204zm-4.502-.404zM43.796 79.743a1.12 1.12 0 01-.227-2.218l63.617-13.271a1.12 1.12 0 01.457 2.194L44.026 79.719a1.124 1.124 0 01-.23.024zM46.732 98.606a1.12 1.12 0 01-.224-2.219l141.875-29.044a1.12 1.12 0 11.45 2.195L46.956 98.583a1.112 1.112 0 01-.225.023zM50.106 116.322a1.12 1.12 0 01-.237-2.216l142.246-30.829a1.12 1.12 0 01.474 2.19l-142.245 30.83a1.143 1.143 0 01-.238.025zM38.852 61.092a1.12 1.12 0 01-.228-2.217l63.618-13.272a1.12 1.12 0 01.457 2.195L39.081 61.069a1.123 1.123 0 01-.23.023z" fill="#3e4147"/><rect x="34.191" y="56.159" width="113.467" height="175.636" rx="17.621" transform="rotate(-87.553 90.924 143.977)" fill="#eef5fb"/><path d="M159.395 204.121q-.388 0-.78-.016l-140.266-5.996a18.07 18.07 0 01-17.28-18.826l3.34-78.152A18.057 18.057 0 0123.233 83.85l140.265 5.995a18.09 18.09 0 0117.282 18.824l-3.341 78.154a18.093 18.093 0 01-18.045 17.298zm-.741-.913c.247.01.495.017.74.017a17.193 17.193 0 0017.15-16.44l3.34-78.154a17.193 17.193 0 00-16.424-17.89L23.195 84.744a17.213 17.213 0 00-17.89 16.424l-3.34 78.153a17.17 17.17 0 0016.423 17.89z" fill="#3e4147"/><path d="M2.729 122.415L.323 181.252c-.186 4.358 4.091 13.348 13.735 15.994l143.357 6.41c11.94-.742 17.739-10.018 17.925-14.376l1.094-17.953c-52.495-40.527-140.19-47.68-173.705-48.912z" fill="#dee4eb"/><path d="M163.62 145.876h-.048l-66.525-2.844a1.12 1.12 0 01.096-2.24l66.524 2.844a1.12 1.12 0 01-.047 2.24zM162.866 163.527l-.048-.002-66.525-2.844a1.12 1.12 0 01.096-2.239l66.524 2.844a1.12 1.12 0 01-.047 2.24zM162.112 181.176l-.05-.002-66.524-2.844a1.12 1.12 0 11.096-2.238l66.524 2.844a1.12 1.12 0 01-.046 2.24z" fill="#3e4147"/><rect x="19.297" y="103.58" width="65.656" height="74.852" rx="20.595" transform="rotate(2.447 52.125 141.005)" fill="#cedd3e"/><path d="M75.337 175.903s-4.46 3.088-8.604 3.145l-31.794-1.033c-1.488-.092-7.07-2.958-7.07-2.958l-.664-.626 2.352-3.568c4.828-9.718 10.37-15.94 19.554-15.548l6.714.287c13.171.563 11.482-2.622 18.213 16.482z" fill="#f3783c"/><path d="M66.75 180.298l-31.852-1.034c-1.658-.102-6.236-2.395-7.6-3.095a1.248 1.248 0 01-.286-.203l-.664-.626a1.25 1.25 0 01-.187-1.597l2.31-3.506c4.117-8.27 9.79-16.65 20.694-16.17l6.713.287c1.856.079 3.395.083 4.752.087 8.545.02 8.841.862 13.778 14.927l2.113 6.133a1.25 1.25 0 01-.472 1.43c-.195.136-4.826 3.305-9.3 3.367zm-37.874-6.13a33.048 33.048 0 006.14 2.599l31.758 1.032c2.695-.038 5.675-1.603 7.062-2.427l-1.787-5.176c-2.336-6.655-3.623-10.32-5.032-11.897-1.15-1.284-2.451-1.349-6.394-1.358-1.38-.004-2.945-.008-4.852-.09l-6.713-.286c-7.631-.343-12.977 3.975-18.382 14.854a1.334 1.334 0 01-.075.131z" fill="#3e4147"/><path d="M63.639 180.439c-.317 0-.635-.006-.955-.02l-24.444-1.045a22.123 22.123 0 01-21.131-23.02l1.437-33.63a22.12 22.12 0 0123.02-21.131l24.443 1.045a22.095 22.095 0 0121.132 23.017l-1.438 33.632A22.124 22.124 0 0163.64 180.44zm-.826-3.018a19.128 19.128 0 0019.892-18.263l1.438-33.63a19.094 19.094 0 00-18.263-19.893l-24.443-1.045a19.131 19.131 0 00-19.893 18.262l-1.437 33.632a19.118 19.118 0 0018.262 19.892z" fill="#3e4147"/><circle cx="52.69" cy="140.393" r="21.493" fill="#eef5fb"/><path d="M52.437 163.132c-.24 0-.479-.006-.718-.016a22.743 22.743 0 1123.693-21.752c-.124 2.897-2.44 8.373-6.629 13.235-4.757 5.523-10.537 8.533-16.346 8.533zm.242-42.982a20.244 20.244 0 00-.853 40.468c6.732.302 11.92-4 15.064-7.65 4.01-4.655 5.936-9.65 6.024-11.71a20.243 20.243 0 00-19.36-21.09q-.438-.018-.875-.018z" fill="#3e4147"/><path d="M159.396 205.173c-.275 0-.549-.006-.825-.018h-.001L18.304 199.16A19.12 19.12 0 01.018 179.24l3.34-78.153A19.159 19.159 0 0123.278 82.8l140.266 5.995a19.144 19.144 0 0118.287 19.92l-3.34 78.154a19.146 19.146 0 01-19.095 18.305zm-.698-3.016a16.097 16.097 0 0016.794-15.417l3.341-78.154a16.14 16.14 0 00-15.418-16.795L23.15 85.796a16.156 16.156 0 00-16.794 15.418l-3.34 78.153a16.117 16.117 0 0015.417 16.794l140.266 5.996z" fill="#3e4147"/><path d="M63.887 126.183a23.269 23.269 0 0011.326 17.682 23.594 23.594 0 001.842-8.203c.844-19.75-8.429-24.261-23.099-24.888A24.01 24.01 0 0028.818 133.6a23.636 23.636 0 00.608 6.423c8.224.453 26.751-.17 34.461-13.84z" fill="#6a5743"/><path d="M75.212 145.115a1.252 1.252 0 01-.65-.181 24.675 24.675 0 01-11.398-15.383c-8.91 11.702-26.355 12.131-33.806 11.72a1.25 1.25 0 01-1.149-.962 24.899 24.899 0 01-.64-6.762 25.284 25.284 0 0126.441-24.022c8.703.372 14.302 2.098 18.154 5.597 4.547 4.13 6.556 10.866 6.14 20.593a24.793 24.793 0 01-1.94 8.638 1.252 1.252 0 01-1.152.762zm-10.076-18.982a21.723 21.723 0 009.464 15.844 22.318 22.318 0 001.206-6.368c.383-8.94-1.358-15.037-5.322-18.637-3.39-3.077-8.503-4.604-16.581-4.95a22.771 22.771 0 00-23.836 21.631 22.342 22.342 0 00.38 5.167c8.029.308 25.221-.61 32.351-13.251a1.25 1.25 0 012.338.564z" fill="#3e4147"/></g></g></svg>
